<mxfile host="app.diagrams.net" modified="2024-05-20T10:55:45.366Z" agent="Mozilla/5.0 (Windows NT 10.0; Win64; x64) AppleWebKit/537.36 (KHTML, like Gecko) Chrome/123.0.0.0 Safari/537.36 OPR/109.0.0.0" etag="6OIgkkCm9nDzm_iCnNxE" version="24.4.4" type="google">
  <diagram name="Pagina-1" id="4jYPAVw-Gb8xnXvPYdBP">
    <mxGraphModel grid="1" page="1" gridSize="10" guides="1" tooltips="1" connect="1" arrows="1" fold="1" pageScale="1" pageWidth="827" pageHeight="1169" math="0" shadow="0">
      <root>
        <mxCell id="0" />
        <mxCell id="1" parent="0" />
        <mxCell id="fP07D6KMU1f-NJhMZYZp-1" value="UI" style="shape=folder;fontStyle=1;spacingTop=10;tabWidth=40;tabHeight=14;tabPosition=left;html=1;whiteSpace=wrap;" vertex="1" parent="1">
          <mxGeometry x="90" y="110" width="70" height="50" as="geometry" />
        </mxCell>
        <mxCell id="fP07D6KMU1f-NJhMZYZp-2" value="" style="endArrow=none;dashed=1;html=1;dashPattern=1 3;strokeWidth=2;rounded=0;entryX=0.5;entryY=1;entryDx=0;entryDy=0;entryPerimeter=0;" edge="1" parent="1">
          <mxGeometry width="50" height="50" relative="1" as="geometry">
            <mxPoint x="120" y="800" as="sourcePoint" />
            <mxPoint x="120" y="160" as="targetPoint" />
            <Array as="points">
              <mxPoint x="120" y="830" />
            </Array>
          </mxGeometry>
        </mxCell>
        <mxCell id="fP07D6KMU1f-NJhMZYZp-3" value="DutyMGR:&lt;div&gt;DutyManager&lt;/div&gt;" style="shape=umlLifeline;perimeter=lifelinePerimeter;whiteSpace=wrap;html=1;container=1;dropTarget=0;collapsible=0;recursiveResize=0;outlineConnect=0;portConstraint=eastwest;newEdgeStyle={&quot;curved&quot;:0,&quot;rounded&quot;:0};" vertex="1" parent="1">
          <mxGeometry x="270" y="120" width="100" height="710" as="geometry" />
        </mxCell>
        <mxCell id="fP07D6KMU1f-NJhMZYZp-4" value="" style="html=1;points=[[0,0,0,0,5],[0,1,0,0,-5],[1,0,0,0,5],[1,1,0,0,-5]];perimeter=orthogonalPerimeter;outlineConnect=0;targetShapes=umlLifeline;portConstraint=eastwest;newEdgeStyle={&quot;curved&quot;:0,&quot;rounded&quot;:0};" vertex="1" parent="fP07D6KMU1f-NJhMZYZp-3">
          <mxGeometry x="45" y="80" width="10" height="620" as="geometry" />
        </mxCell>
        <mxCell id="fP07D6KMU1f-NJhMZYZp-6" value="" style="html=1;verticalAlign=bottom;endArrow=open;dashed=1;endSize=8;curved=0;rounded=0;exitX=0;exitY=1;exitDx=0;exitDy=-5;" edge="1" parent="fP07D6KMU1f-NJhMZYZp-3" source="fP07D6KMU1f-NJhMZYZp-4">
          <mxGeometry relative="1" as="geometry">
            <mxPoint x="-150" y="695" as="targetPoint" />
          </mxGeometry>
        </mxCell>
        <mxCell id="fP07D6KMU1f-NJhMZYZp-7" value="" style="html=1;points=[[0,0,0,0,5],[0,1,0,0,-5],[1,0,0,0,5],[1,1,0,0,-5]];perimeter=orthogonalPerimeter;outlineConnect=0;targetShapes=umlLifeline;portConstraint=eastwest;newEdgeStyle={&quot;curved&quot;:0,&quot;rounded&quot;:0};" vertex="1" parent="fP07D6KMU1f-NJhMZYZp-3">
          <mxGeometry x="55" y="460" width="10" height="60" as="geometry" />
        </mxCell>
        <mxCell id="fP07D6KMU1f-NJhMZYZp-8" value="" style="html=1;align=left;spacingLeft=2;endArrow=block;rounded=0;edgeStyle=orthogonalEdgeStyle;curved=0;rounded=0;" edge="1" parent="fP07D6KMU1f-NJhMZYZp-3" target="fP07D6KMU1f-NJhMZYZp-7">
          <mxGeometry relative="1" as="geometry">
            <mxPoint x="55" y="410" as="sourcePoint" />
            <Array as="points">
              <mxPoint x="55" y="440" />
              <mxPoint x="90" y="440" />
              <mxPoint x="90" y="470" />
            </Array>
          </mxGeometry>
        </mxCell>
        <mxCell id="fP07D6KMU1f-NJhMZYZp-9" value="ds.currentDutySheet:&lt;div&gt;DutySheet&lt;/div&gt;" style="shape=umlLifeline;perimeter=lifelinePerimeter;whiteSpace=wrap;html=1;container=1;dropTarget=0;collapsible=0;recursiveResize=0;outlineConnect=0;portConstraint=eastwest;newEdgeStyle={&quot;curved&quot;:0,&quot;rounded&quot;:0};" vertex="1" parent="1">
          <mxGeometry x="550" y="120" width="140" height="660" as="geometry" />
        </mxCell>
        <mxCell id="fP07D6KMU1f-NJhMZYZp-10" value="" style="html=1;points=[[0,0,0,0,5],[0,1,0,0,-5],[1,0,0,0,5],[1,1,0,0,-5]];perimeter=orthogonalPerimeter;outlineConnect=0;targetShapes=umlLifeline;portConstraint=eastwest;newEdgeStyle={&quot;curved&quot;:0,&quot;rounded&quot;:0};" vertex="1" parent="fP07D6KMU1f-NJhMZYZp-9">
          <mxGeometry x="65" y="200" width="10" height="290" as="geometry" />
        </mxCell>
        <mxCell id="fP07D6KMU1f-NJhMZYZp-11" value="" style="html=1;verticalAlign=bottom;endArrow=block;curved=0;rounded=0;" edge="1" parent="1" target="fP07D6KMU1f-NJhMZYZp-10">
          <mxGeometry relative="1" as="geometry">
            <mxPoint x="325" y="330" as="sourcePoint" />
            <mxPoint x="525" y="330" as="targetPoint" />
            <mxPoint as="offset" />
          </mxGeometry>
        </mxCell>
        <mxCell id="fP07D6KMU1f-NJhMZYZp-12" value="" style="html=1;verticalAlign=bottom;endArrow=open;dashed=1;endSize=8;curved=0;rounded=0;" edge="1" parent="1" source="fP07D6KMU1f-NJhMZYZp-10">
          <mxGeometry relative="1" as="geometry">
            <mxPoint x="635" y="348" as="sourcePoint" />
            <mxPoint x="700" y="350" as="targetPoint" />
          </mxGeometry>
        </mxCell>
        <mxCell id="fP07D6KMU1f-NJhMZYZp-13" value="ds.tasks:&amp;nbsp;&lt;div&gt;Task&lt;/div&gt;" style="shape=umlLifeline;perimeter=lifelinePerimeter;whiteSpace=wrap;html=1;container=1;dropTarget=0;collapsible=0;recursiveResize=0;outlineConnect=0;portConstraint=eastwest;newEdgeStyle={&quot;curved&quot;:0,&quot;rounded&quot;:0};" vertex="1" parent="1">
          <mxGeometry x="700" y="330" width="100" height="460" as="geometry" />
        </mxCell>
        <mxCell id="fP07D6KMU1f-NJhMZYZp-14" value="" style="html=1;points=[[0,0,0,0,5],[0,1,0,0,-5],[1,0,0,0,5],[1,1,0,0,-5]];perimeter=orthogonalPerimeter;outlineConnect=0;targetShapes=umlLifeline;portConstraint=eastwest;newEdgeStyle={&quot;curved&quot;:0,&quot;rounded&quot;:0};" vertex="1" parent="fP07D6KMU1f-NJhMZYZp-13">
          <mxGeometry x="45" y="51" width="10" height="189" as="geometry" />
        </mxCell>
        <mxCell id="fP07D6KMU1f-NJhMZYZp-19" value="" style="html=1;align=left;spacingLeft=2;endArrow=block;rounded=0;edgeStyle=orthogonalEdgeStyle;curved=0;rounded=0;" edge="1" parent="fP07D6KMU1f-NJhMZYZp-13" source="fP07D6KMU1f-NJhMZYZp-14" target="fP07D6KMU1f-NJhMZYZp-14">
          <mxGeometry x="0.1235" relative="1" as="geometry">
            <mxPoint x="56" y="100" as="sourcePoint" />
            <Array as="points">
              <mxPoint x="86" y="100" />
              <mxPoint x="86" y="130" />
            </Array>
            <mxPoint x="57" y="130" as="targetPoint" />
            <mxPoint as="offset" />
          </mxGeometry>
        </mxCell>
        <mxCell id="VvwXMPxeqUueOpN9VDhK-6" value="" style="html=1;align=left;spacingLeft=2;endArrow=block;rounded=0;edgeStyle=orthogonalEdgeStyle;curved=0;rounded=0;" edge="1" parent="fP07D6KMU1f-NJhMZYZp-13">
          <mxGeometry x="0.1235" relative="1" as="geometry">
            <mxPoint x="55" y="140" as="sourcePoint" />
            <Array as="points">
              <mxPoint x="86" y="140" />
              <mxPoint x="86" y="170" />
            </Array>
            <mxPoint x="55" y="170" as="targetPoint" />
            <mxPoint as="offset" />
          </mxGeometry>
        </mxCell>
        <mxCell id="fP07D6KMU1f-NJhMZYZp-16" value="er:&lt;div&gt;DutyEventReceiver&lt;/div&gt;" style="shape=umlLifeline;perimeter=lifelinePerimeter;whiteSpace=wrap;html=1;container=1;dropTarget=0;collapsible=0;recursiveResize=0;outlineConnect=0;portConstraint=eastwest;newEdgeStyle={&quot;curved&quot;:0,&quot;rounded&quot;:0};" vertex="1" parent="1">
          <mxGeometry x="1100" y="120" width="120" height="660" as="geometry" />
        </mxCell>
        <mxCell id="VvwXMPxeqUueOpN9VDhK-20" value="" style="html=1;points=[[0,0,0,0,5],[0,1,0,0,-5],[1,0,0,0,5],[1,1,0,0,-5]];perimeter=orthogonalPerimeter;outlineConnect=0;targetShapes=umlLifeline;portConstraint=eastwest;newEdgeStyle={&quot;curved&quot;:0,&quot;rounded&quot;:0};" vertex="1" parent="fP07D6KMU1f-NJhMZYZp-16">
          <mxGeometry x="55" y="613" width="10" height="20" as="geometry" />
        </mxCell>
        <mxCell id="fP07D6KMU1f-NJhMZYZp-17" value="" style="html=1;align=left;spacingLeft=2;endArrow=block;rounded=0;edgeStyle=orthogonalEdgeStyle;curved=0;rounded=0;" edge="1" parent="1" target="fP07D6KMU1f-NJhMZYZp-14">
          <mxGeometry relative="1" as="geometry">
            <mxPoint x="755" y="390" as="sourcePoint" />
            <Array as="points">
              <mxPoint x="786" y="390" />
              <mxPoint x="786" y="420" />
            </Array>
            <mxPoint x="755" y="420.02857142857135" as="targetPoint" />
          </mxGeometry>
        </mxCell>
        <mxCell id="fP07D6KMU1f-NJhMZYZp-21" value="ds.myTask:&lt;div&gt;ArrayList&amp;lt;Task&amp;gt;&lt;/div&gt;" style="shape=umlLifeline;perimeter=lifelinePerimeter;whiteSpace=wrap;html=1;container=1;dropTarget=0;collapsible=0;recursiveResize=0;outlineConnect=0;portConstraint=eastwest;newEdgeStyle={&quot;curved&quot;:0,&quot;rounded&quot;:0};" vertex="1" parent="1">
          <mxGeometry x="950" y="120" width="100" height="660" as="geometry" />
        </mxCell>
        <mxCell id="fP07D6KMU1f-NJhMZYZp-22" value="" style="html=1;points=[[0,0,0,0,5],[0,1,0,0,-5],[1,0,0,0,5],[1,1,0,0,-5]];perimeter=orthogonalPerimeter;outlineConnect=0;targetShapes=umlLifeline;portConstraint=eastwest;newEdgeStyle={&quot;curved&quot;:0,&quot;rounded&quot;:0};" vertex="1" parent="fP07D6KMU1f-NJhMZYZp-21">
          <mxGeometry x="46" y="470" width="10" height="20.5" as="geometry" />
        </mxCell>
        <mxCell id="fP07D6KMU1f-NJhMZYZp-23" value="" style="html=1;verticalAlign=bottom;endArrow=block;curved=0;rounded=0;" edge="1" parent="1" target="VvwXMPxeqUueOpN9VDhK-20">
          <mxGeometry relative="1" as="geometry">
            <mxPoint x="330" y="751" as="sourcePoint" />
            <mxPoint x="1140" y="750" as="targetPoint" />
          </mxGeometry>
        </mxCell>
        <mxCell id="fP07D6KMU1f-NJhMZYZp-24" value="&lt;font style=&quot;font-size: 10px;&quot;&gt;alt [!user.isChef()]&lt;/font&gt;" style="shape=umlFrame;whiteSpace=wrap;html=1;pointerEvents=0;width=100;height=30;" vertex="1" parent="1">
          <mxGeometry y="230" width="1310" height="630" as="geometry" />
        </mxCell>
        <mxCell id="fP07D6KMU1f-NJhMZYZp-26" value="" style="endArrow=none;dashed=1;html=1;rounded=0;exitX=0;exitY=0.073;exitDx=0;exitDy=0;exitPerimeter=0;entryX=1;entryY=0.109;entryDx=0;entryDy=0;entryPerimeter=0;" edge="1" parent="1" source="fP07D6KMU1f-NJhMZYZp-24">
          <mxGeometry width="50" height="50" relative="1" as="geometry">
            <mxPoint x="10" y="275.7200000000001" as="sourcePoint" />
            <mxPoint x="1310" y="269.99999999999994" as="targetPoint" />
          </mxGeometry>
        </mxCell>
        <mxCell id="fP07D6KMU1f-NJhMZYZp-30" value="for each er in receivers" style="shape=umlFrame;whiteSpace=wrap;html=1;pointerEvents=0;width=80;height=30;" vertex="1" parent="1">
          <mxGeometry x="220" y="720" width="1020" height="60" as="geometry" />
        </mxCell>
        <mxCell id="fP07D6KMU1f-NJhMZYZp-32" value="&lt;font style=&quot;font-size: 36px;&quot;&gt;2. addTask&lt;/font&gt;" style="text;html=1;align=center;verticalAlign=middle;whiteSpace=wrap;rounded=0;" vertex="1" parent="1">
          <mxGeometry y="10" width="690" height="90" as="geometry" />
        </mxCell>
        <mxCell id="fP07D6KMU1f-NJhMZYZp-33" value="addTask(ds, desc?, name?,qty)" style="text;html=1;align=center;verticalAlign=middle;whiteSpace=wrap;rounded=0;" vertex="1" parent="1">
          <mxGeometry x="130" y="170" width="170" height="30" as="geometry" />
        </mxCell>
        <mxCell id="fP07D6KMU1f-NJhMZYZp-39" value="create()" style="text;html=1;align=center;verticalAlign=middle;resizable=0;points=[];autosize=1;strokeColor=none;fillColor=none;" vertex="1" parent="1">
          <mxGeometry x="630" y="330" width="60" height="30" as="geometry" />
        </mxCell>
        <mxCell id="VvwXMPxeqUueOpN9VDhK-5" value="addTask(ds, desc?, name?,qty)" style="text;html=1;align=center;verticalAlign=middle;whiteSpace=wrap;rounded=0;" vertex="1" parent="1">
          <mxGeometry x="330" y="305" width="176" height="30" as="geometry" />
        </mxCell>
        <mxCell id="VvwXMPxeqUueOpN9VDhK-7" value="&lt;font style=&quot;font-size: 11px;&quot;&gt;this.name = name&lt;/font&gt;" style="text;html=1;align=center;verticalAlign=middle;resizable=0;points=[];autosize=1;strokeColor=none;fillColor=none;" vertex="1" parent="1">
          <mxGeometry x="776" y="390" width="110" height="30" as="geometry" />
        </mxCell>
        <mxCell id="VvwXMPxeqUueOpN9VDhK-8" value="&lt;font style=&quot;font-size: 11px;&quot;&gt;this.description = desc&lt;/font&gt;" style="text;html=1;align=center;verticalAlign=middle;resizable=0;points=[];autosize=1;strokeColor=none;fillColor=none;" vertex="1" parent="1">
          <mxGeometry x="776" y="430" width="130" height="30" as="geometry" />
        </mxCell>
        <mxCell id="VvwXMPxeqUueOpN9VDhK-9" value="&lt;font style=&quot;font-size: 11px;&quot;&gt;this.qty = qty&lt;/font&gt;" style="text;html=1;align=center;verticalAlign=middle;resizable=0;points=[];autosize=1;strokeColor=none;fillColor=none;" vertex="1" parent="1">
          <mxGeometry x="776" y="470" width="90" height="30" as="geometry" />
        </mxCell>
        <mxCell id="VvwXMPxeqUueOpN9VDhK-10" value="create()" style="text;html=1;align=center;verticalAlign=middle;resizable=0;points=[];autosize=1;strokeColor=none;fillColor=none;" vertex="1" parent="1">
          <mxGeometry x="786" y="515" width="60" height="30" as="geometry" />
        </mxCell>
        <mxCell id="VvwXMPxeqUueOpN9VDhK-11" value="" style="html=1;verticalAlign=bottom;endArrow=open;dashed=1;endSize=8;curved=0;rounded=0;entryX=-0.002;entryY=0.565;entryDx=0;entryDy=0;entryPerimeter=0;" edge="1" parent="1" target="fP07D6KMU1f-NJhMZYZp-40">
          <mxGeometry relative="1" as="geometry">
            <mxPoint x="756" y="537" as="sourcePoint" />
            <mxPoint x="896" y="537" as="targetPoint" />
          </mxGeometry>
        </mxCell>
        <mxCell id="fP07D6KMU1f-NJhMZYZp-40" value="overflowList: arraylist&amp;lt;Task&amp;gt;" style="rounded=0;whiteSpace=wrap;html=1;" vertex="1" parent="1">
          <mxGeometry x="880" y="515" width="110" height="40" as="geometry" />
        </mxCell>
        <mxCell id="fP07D6KMU1f-NJhMZYZp-41" style="edgeStyle=orthogonalEdgeStyle;rounded=0;orthogonalLoop=1;jettySize=auto;html=1;exitX=0.5;exitY=1;exitDx=0;exitDy=0;" edge="1" parent="1" source="fP07D6KMU1f-NJhMZYZp-40" target="fP07D6KMU1f-NJhMZYZp-40">
          <mxGeometry relative="1" as="geometry" />
        </mxCell>
        <mxCell id="VvwXMPxeqUueOpN9VDhK-16" value="" style="dashed=0;outlineConnect=0;html=1;align=center;labelPosition=center;verticalLabelPosition=bottom;verticalAlign=top;shape=mxgraph.webicons.stackoverflow;gradientColor=#DFDEDE" vertex="1" parent="1">
          <mxGeometry x="220" y="690" height="28.5" as="geometry" />
        </mxCell>
        <mxCell id="VvwXMPxeqUueOpN9VDhK-17" value="task" style="html=1;verticalAlign=bottom;endArrow=open;dashed=1;endSize=8;curved=0;rounded=0;exitX=0;exitY=1;exitDx=0;exitDy=-5;exitPerimeter=0;" edge="1" parent="1" source="fP07D6KMU1f-NJhMZYZp-14" target="fP07D6KMU1f-NJhMZYZp-10">
          <mxGeometry relative="1" as="geometry">
            <mxPoint x="670" y="550" as="sourcePoint" />
            <mxPoint x="590" y="550" as="targetPoint" />
          </mxGeometry>
        </mxCell>
        <mxCell id="VvwXMPxeqUueOpN9VDhK-18" value="add(task)" style="html=1;verticalAlign=bottom;endArrow=block;curved=0;rounded=0;" edge="1" parent="1" source="fP07D6KMU1f-NJhMZYZp-10" target="fP07D6KMU1f-NJhMZYZp-22">
          <mxGeometry width="80" relative="1" as="geometry">
            <mxPoint x="630" y="585" as="sourcePoint" />
            <mxPoint x="997.25" y="585" as="targetPoint" />
          </mxGeometry>
        </mxCell>
        <mxCell id="fP07D6KMU1f-NJhMZYZp-45" value="notifyTaskAdded(task)" style="text;html=1;align=center;verticalAlign=middle;resizable=0;points=[];autosize=1;strokeColor=none;fillColor=none;" vertex="1" parent="1">
          <mxGeometry x="360" y="560" width="140" height="30" as="geometry" />
        </mxCell>
        <mxCell id="VvwXMPxeqUueOpN9VDhK-21" value="updateTaskAdded(task)" style="text;html=1;align=center;verticalAlign=middle;resizable=0;points=[];autosize=1;strokeColor=none;fillColor=none;" vertex="1" parent="1">
          <mxGeometry x="505" y="728" width="150" height="30" as="geometry" />
        </mxCell>
        <mxCell id="VvwXMPxeqUueOpN9VDhK-22" value="task" style="text;html=1;align=center;verticalAlign=middle;resizable=0;points=[];autosize=1;strokeColor=none;fillColor=none;" vertex="1" parent="1">
          <mxGeometry x="190" y="790" width="50" height="30" as="geometry" />
        </mxCell>
        <mxCell id="fP07D6KMU1f-NJhMZYZp-5" value="" style="html=1;verticalAlign=bottom;endArrow=block;curved=0;rounded=0;entryX=0;entryY=0;entryDx=0;entryDy=5;" edge="1" parent="1">
          <mxGeometry relative="1" as="geometry">
            <mxPoint x="116" y="200" as="sourcePoint" />
            <mxPoint x="315" y="200.0000000000001" as="targetPoint" />
          </mxGeometry>
        </mxCell>
        <mxCell id="L1BQEHJ4tx-dW8rKxKvZ-1" value="getCurrentUser()" style="html=1;verticalAlign=bottom;endArrow=block;curved=0;rounded=0;" edge="1" parent="1" target="L1BQEHJ4tx-dW8rKxKvZ-3">
          <mxGeometry width="80" relative="1" as="geometry">
            <mxPoint x="320" y="200" as="sourcePoint" />
            <mxPoint x="400" y="200" as="targetPoint" />
          </mxGeometry>
        </mxCell>
        <mxCell id="L1BQEHJ4tx-dW8rKxKvZ-2" value="userMgr.&lt;div&gt;UserManager&lt;/div&gt;" style="shape=umlLifeline;perimeter=lifelinePerimeter;whiteSpace=wrap;html=1;container=1;dropTarget=0;collapsible=0;recursiveResize=0;outlineConnect=0;portConstraint=eastwest;newEdgeStyle={&quot;curved&quot;:0,&quot;rounded&quot;:0};" vertex="1" parent="1">
          <mxGeometry x="390" y="120" width="100" height="720" as="geometry" />
        </mxCell>
        <mxCell id="L1BQEHJ4tx-dW8rKxKvZ-3" value="" style="html=1;points=[[0,0,0,0,5],[0,1,0,0,-5],[1,0,0,0,5],[1,1,0,0,-5]];perimeter=orthogonalPerimeter;outlineConnect=0;targetShapes=umlLifeline;portConstraint=eastwest;newEdgeStyle={&quot;curved&quot;:0,&quot;rounded&quot;:0};" vertex="1" parent="L1BQEHJ4tx-dW8rKxKvZ-2">
          <mxGeometry x="45" y="80" width="10" height="20" as="geometry" />
        </mxCell>
        <mxCell id="L1BQEHJ4tx-dW8rKxKvZ-4" value="user" style="html=1;verticalAlign=bottom;endArrow=open;dashed=1;endSize=8;curved=0;rounded=0;" edge="1" parent="1">
          <mxGeometry relative="1" as="geometry">
            <mxPoint x="435" y="220" as="sourcePoint" />
            <mxPoint x="325" y="220" as="targetPoint" />
          </mxGeometry>
        </mxCell>
        <mxCell id="L1BQEHJ4tx-dW8rKxKvZ-5" value="throw UseCaseLogicException" style="html=1;verticalAlign=bottom;endArrow=open;dashed=1;endSize=8;curved=0;rounded=0;" edge="1" parent="1" source="fP07D6KMU1f-NJhMZYZp-4">
          <mxGeometry relative="1" as="geometry">
            <mxPoint x="240" y="260" as="sourcePoint" />
            <mxPoint x="120" y="260" as="targetPoint" />
          </mxGeometry>
        </mxCell>
      </root>
    </mxGraphModel>
  </diagram>
</mxfile>
